<?xml version="1.0" standalone="no"?>
<svg version="1.0" xmlns="http://www.w3.org/2000/svg"
 width="700.000000pt" height="700.000000pt" viewBox="0 0 700.000000 700.000000"
 preserveAspectRatio="xMidYMid meet">
<g transform="translate(0.000000,700.000000) scale(0.100000,-0.100000)"
fill="#000000" stroke="none">
<path d="M3030 6640 c-152 -15 -226 -23 -290 -34 -25 -4 -58 -10 -75 -12 -59
-9 -222 -46 -330 -74 -691 -185 -1316 -592 -1721 -1121 -278 -363 -453 -783
-508 -1219 -16 -126 -19 -433 -6 -548 14 -119 24 -177 51 -297 28 -124 101
-337 154 -451 25 -53 45 -97 45 -99 0 -22 166 -286 251 -400 184 -246 439
-487 709 -671 47 -31 87 -59 90 -61 2 -2 5 -207 5 -456 1 -433 2 -454 21 -497
25 -55 72 -103 128 -132 32 -17 58 -22 116 -22 89 0 95 4 285 138 273 194 511
348 662 427 103 54 103 54 228 34 159 -26 464 -35 700 -22 113 6 409 41 447
53 10 3 30 7 45 10 16 2 39 7 53 10 14 3 36 8 50 11 202 37 576 171 805 287
322 164 576 346 816 585 232 232 389 448 527 726 119 240 214 556 237 790 3
33 8 80 10 105 6 60 6 322 0 385 -59 602 -318 1144 -760 1588 -351 352 -773
612 -1266 781 -123 42 -355 105 -439 120 -19 3 -46 8 -60 11 -87 18 -88 18
-225 34 -55 7 -116 14 -135 17 -59 9 -540 12 -620 4z m575 -524 c28 -4 70 -9
95 -11 25 -3 56 -7 70 -10 14 -2 41 -6 60 -9 19 -3 69 -12 110 -20 581 -116
1071 -372 1455 -760 110 -111 275 -311 275 -334 0 -5 7 -15 15 -22 13 -11 29
-38 102 -168 70 -126 159 -373 189 -527 2 -11 6 -31 9 -45 30 -145 34 -439 9
-590 -3 -19 -8 -47 -9 -62 -17 -130 -90 -349 -172 -517 -266 -544 -765 -972
-1413 -1214 -114 -42 -315 -100 -425 -121 -44 -8 -91 -18 -105 -21 -14 -3 -45
-8 -70 -11 -25 -3 -56 -7 -70 -10 -27 -4 -127 -14 -200 -20 -80 -6 -333 -6
-425 0 -97 7 -116 9 -245 27 -158 23 -235 11 -400 -59 -91 -38 -295 -152 -425
-236 -44 -29 -85 -55 -90 -59 -8 -4 -11 81 -11 266 -1 272 -1 272 -27 322 -31
61 -72 100 -157 150 -279 164 -586 440 -746 670 -183 264 -285 488 -343 751
-83 380 -47 773 104 1139 61 148 203 394 272 470 10 11 31 37 47 58 87 117
334 345 496 458 141 99 362 221 516 285 292 121 672 213 953 230 47 3 87 7 89
8 5 6 415 -2 467 -8z"/>
<path d="M1880 4192 c-54 -7 -127 -37 -180 -72 -115 -79 -177 -195 -184 -350
-1 -38 18 -120 40 -166 72 -152 231 -248 396 -239 90 4 106 8 171 38 132 61
226 200 235 346 14 240 -160 433 -401 444 -28 2 -63 1 -77 -1z"/>
<path d="M3219 4184 c-217 -50 -363 -269 -319 -480 50 -238 275 -384 510 -331
113 25 234 118 281 215 155 324 -124 676 -472 596z"/>
<path d="M4617 4189 c-126 -20 -249 -114 -308 -235 -28 -56 -34 -80 -37 -156
-4 -74 -1 -99 18 -151 84 -230 326 -342 555 -256 91 34 195 129 227 209 6 14
14 34 19 45 17 40 24 121 17 183 -15 135 -110 266 -233 323 -35 17 -74 32 -87
34 -55 10 -126 11 -171 4z"/>
<path d="M6639 3128 c-1 -26 -7 -45 -54 -168 -26 -69 -70 -172 -98 -229 l-50
-104 18 -76 c28 -119 30 -138 30 -271 -1 -143 -14 -227 -57 -355 -87 -261
-286 -510 -543 -679 -202 -133 -206 -140 -208 -327 0 -71 -3 -129 -6 -128 -3
0 -26 14 -51 29 -69 45 -178 100 -249 127 -78 29 -143 34 -247 17 -81 -13
-443 -13 -514 0 -19 4 -58 11 -86 17 -28 5 -62 12 -77 14 -15 3 -39 10 -54 16
-16 6 -29 10 -31 9 -1 -1 -15 1 -31 5 -16 3 -58 -1 -93 -10 -75 -18 -89 -21
-193 -41 -90 -17 -119 -21 -190 -29 -27 -3 -57 -7 -65 -10 -20 -5 -150 -18
-172 -17 -10 0 -18 -1 -18 -3 0 -2 28 -21 63 -42 279 -176 588 -284 937 -327
103 -13 488 -15 539 -2 61 14 97 9 166 -26 65 -33 241 -148 427 -277 90 -63
145 -77 219 -55 57 17 121 78 137 132 8 26 12 128 12 306 0 147 4 266 9 266 5
0 48 30 97 67 135 101 216 179 344 328 112 131 235 359 291 541 73 236 88 500
43 749 -21 119 -96 336 -147 425 -11 19 -32 57 -48 85 -27 50 -48 68 -50 43z"/>
</g>
</svg>
