<?xml version="1.0" encoding="UTF-8"?>
<svg width="360px" height="80px" viewBox="0 0 360 80" version="1.1" xmlns="http://www.w3.org/2000/svg" xmlns:xlink="http://www.w3.org/1999/xlink">
    <title>duoshuo-logo</title>
    <g id="duoshuo-logo" stroke="none" stroke-width="1" fill="none" fill-rule="evenodd">
        <path d="M52.2196,68.2044872 C55.5054288,69.205826 58.9790394,69.4324649 62.3674,68.8665899 C62.5014988,68.8449719 62.6371681,68.83455 62.773,68.8354321 C63.982,68.8354321 65.5693,69.536482 67.882,71.0164763 L67.882,68.5822752 C67.8829777,67.7248421 68.346522,66.9344605 69.0949,66.514178 C70.1011,65.9455486 71.0371,65.2912354 71.8912,64.5707119 C75.2608,61.7197756 77.164,57.9185272 77.164,53.891385 C77.164,52.5399165 76.9495,51.2273953 76.5439,49.9732949 C77.5618,48.0765655 78.3847,46.082468 78.9892,44.0143707 C80.9436916,46.9393383 81.990977,50.3749864 82,53.891385 C82,59.363469 79.4494,64.4655544 75.0385,68.1966978 C74.3022615,68.8189855 73.5272024,69.3939644 72.718,69.9181648 L72.718,75.6083532 C72.718,77.5673982 70.456,78.6929727 68.8609,77.528451 C67.3525442,76.4024195 65.7907334,75.3496241 64.1809,74.3737264 C63.7198962,74.0981842 63.2403506,73.8548318 62.7457,73.6454134 C61.4197,73.8440442 60.0625,73.945307 58.6936,73.945307 C53.1868,73.945307 48.1012,72.2978397 44.0959,69.5286926 C46.8362596,69.338236 49.5570259,68.8949501 52.2196,68.2044872 Z M14.9746,58.1483158 C8.017,52.2556019 4,44.2285804 4,35.6251402 C4,18.0482612 20.6062,4 40.8823,4 C61.1623,4 77.7685,18.0482612 77.7685,35.6251402 C77.7685,53.2059139 61.1584,67.2541751 40.8823,67.2541751 C38.6047,67.2541751 36.3505,67.0789126 34.1431,66.7283877 C33.1876,66.9542815 29.3695,69.2210096 23.8666,73.2325729 C21.8737,74.6891988 19.0462,73.2832043 19.0462,70.8334244 L19.0462,61.1277779 C17.6211466,60.2305703 16.2606314,59.2349907 14.9746,58.1483158 Z M34.7827,60.7811477 C36.7717,61.1160937 38.8153,61.2874615 40.8823,61.2874615 C58.0111,61.2874615 71.7196,49.6889803 71.7196,35.6251402 C71.7196,21.5651949 58.0111,9.96671364 40.8823,9.96671364 C23.7613,9.96671364 10.045,21.5651949 10.045,35.6251402 C10.045,42.4253243 13.2469,48.8282468 18.9097,53.6187544 C20.3332,54.8183287 21.8971,55.9088508 23.5741,56.8591629 C24.514,57.3888451 25.0951,58.3781044 25.0951,59.4452581 L25.0951,65.0419732 C29.4475,62.1248266 32.3101,60.7422004 34.2757,60.7422004 C34.4434,60.7422004 34.615,60.7538846 34.7827,60.7811477 Z M25.1614,41.5957486 C22.4899,41.5957486 20.3254,39.4536516 20.3254,36.8208198 C20.3254,34.1840932 22.4899,32.045891 25.1614,32.045891 C27.8329,32.045891 29.9974,34.1840932 29.9974,36.8208198 C29.9974,39.4575463 27.8329,41.5957486 25.1614,41.5957486 Z M36.0463,36.8208198 C36.0463,34.1840932 38.2108,32.045891 40.8823,32.045891 C43.5538,32.045891 45.7183,34.1840932 45.7183,36.8208198 C45.7183,39.4575463 43.5538,41.5957486 40.8823,41.5957486 C38.2108,41.5957486 36.0463,39.4536516 36.0463,36.8208198 Z M56.6032,41.5957486 C53.9317,41.5957486 51.7672,39.4536516 51.7672,36.8208198 C51.7672,34.1840932 53.9317,32.045891 56.6032,32.045891 C59.2747,32.045891 61.4392,34.1840932 61.4392,36.8208198 C61.4392,39.4575463 59.2747,41.5957486 56.6032,41.5957486 Z" id="Shape" fill="#1C98F7" fill-rule="nonzero"></path>
        <g id="DUOSHUO" transform="translate(100.500000, 23.906250)" fill="#2D95E5" fill-rule="nonzero">
            <path d="M8.4375,45.0625 C6.625,45.0625 5.046875,44.6614583 3.703125,43.859375 C2.359375,43.0572917 1.54166667,41.7395833 1.25,39.90625 C0.416666667,33.09375 0,26.0625 0,18.8125 C0,14.2916667 0.166666667,9.97916667 0.5,5.875 C0.6875,4.125 1.40104167,2.859375 2.640625,2.078125 C3.88020833,1.296875 5.33333333,0.802083333 7,0.59375 C8.52083333,0.427083333 9.98958333,0.34375 11.40625,0.34375 L11.875,0.34375 C14.875,0.34375 17.484375,0.90625 19.703125,2.03125 C21.921875,3.15625 23.7604167,4.671875 25.21875,6.578125 C26.6770833,8.484375 27.765625,10.6510417 28.484375,13.078125 C29.203125,15.5052083 29.5625,18.03125 29.5625,20.65625 C29.5625,23.59375 29.1145833,26.515625 28.21875,29.421875 C27.3229167,32.328125 25.984375,34.953125 24.203125,37.296875 C22.421875,39.640625 20.2135417,41.5208333 17.578125,42.9375 C14.9427083,44.3541667 11.8958333,45.0625 8.4375,45.0625 Z M12.03125,33.375 C14.21875,32.2291667 15.9010417,30.4270833 17.078125,27.96875 C18.2552083,25.5104167 18.84375,23.0104167 18.84375,20.46875 C18.84375,18.8645833 18.5885417,17.3697917 18.078125,15.984375 C17.5677083,14.5989583 16.78125,13.4791667 15.71875,12.625 C14.65625,11.7708333 13.2916667,11.3125 11.625,11.25 C11.5,13.8333333 11.4375,16.46875 11.4375,19.15625 C11.4375,23.9479167 11.6354167,28.6875 12.03125,33.375 Z" id="Shape"></path>
            <path d="M49.5,44.78125 C47.3541667,44.78125 45.25,44.2239583 43.1875,43.109375 C41.125,41.9947917 39.2760417,40.3125 37.640625,38.0625 C36.0052083,35.8125 34.6979167,32.9895833 33.71875,29.59375 C32.7395833,26.1979167 32.25,22.2083333 32.25,17.625 C32.25,13.9791667 32.6145833,9.94791667 33.34375,5.53125 C33.6145833,4.11458333 34.28125,2.96354167 35.34375,2.078125 C36.40625,1.19270833 37.6145833,0.75 38.96875,0.75 C40.5104167,0.75 41.8541667,1.30208333 43,2.40625 C44.1458333,3.51041667 44.71875,4.86458333 44.71875,6.46875 C44.71875,6.78125 44.6875,7.10416667 44.625,7.4375 C43.9166667,11.7083333 43.5625,15.4375 43.5625,18.625 C43.5625,21.8958333 43.8541667,24.5989583 44.4375,26.734375 C45.0208333,28.8697917 45.7708333,30.4635417 46.6875,31.515625 C47.6041667,32.5677083 48.5625,33.09375 49.5625,33.09375 C50.5416667,33.09375 51.4895833,32.578125 52.40625,31.546875 C53.3229167,30.515625 54.0729167,28.9791667 54.65625,26.9375 C55.2395833,24.8958333 55.53125,22.375 55.53125,19.375 C55.53125,16.25 55.1354167,12.6145833 54.34375,8.46875 C54.2604167,8.09375 54.21875,7.71875 54.21875,7.34375 C54.21875,5.71875 54.7916667,4.35416667 55.9375,3.25 C57.0833333,2.14583333 58.4166667,1.59375 59.9375,1.59375 C61.2708333,1.59375 62.4583333,2.015625 63.5,2.859375 C64.5416667,3.703125 65.21875,4.8125 65.53125,6.1875 C66.4270833,10.75 66.875,14.9166667 66.875,18.6875 C66.875,22.9791667 66.3854167,26.75 65.40625,30 C64.4270833,33.25 63.109375,35.96875 61.453125,38.15625 C59.796875,40.34375 57.9322917,41.9947917 55.859375,43.109375 C53.7864583,44.2239583 51.6666667,44.78125 49.5,44.78125 Z" id="Path"></path>
            <path d="M86.21875,33.125 C87.03125,33.125 87.8229167,32.828125 88.59375,32.234375 C89.3645833,31.640625 90.0208333,30.75 90.5625,29.5625 C91.5208333,27.2083333 92,24.7395833 92,22.15625 C92,20.46875 91.7916667,18.84375 91.375,17.28125 C90.8958333,15.65625 90.1822917,14.4375 89.234375,13.625 C88.2864583,12.8125 87.28125,12.40625 86.21875,12.40625 C85.15625,12.40625 84.1458333,12.8125 83.1875,13.625 C82.2291667,14.4375 81.5104167,15.65625 81.03125,17.28125 C80.6145833,18.84375 80.40625,20.46875 80.40625,22.15625 C80.40625,24.7395833 80.8854167,27.2083333 81.84375,29.5625 C82.3854167,30.75 83.0416667,31.640625 83.8125,32.234375 C84.5833333,32.828125 85.3854167,33.125 86.21875,33.125 Z M86.1875,44.6875 C83.25,44.6875 80.4427083,43.8125 77.765625,42.0625 C75.0885417,40.3125 72.9479167,37.6770833 71.34375,34.15625 C69.7604167,30.34375 68.96875,26.3541667 68.96875,22.1875 C68.96875,19.4375 69.3229167,16.7708333 70.03125,14.1875 C70.8854167,11.25 72.1458333,8.80729167 73.8125,6.859375 C75.4791667,4.91145833 77.390625,3.44791667 79.546875,2.46875 C81.703125,1.48958333 83.9270833,1 86.21875,1 C88.4895833,1 90.703125,1.48958333 92.859375,2.46875 C95.015625,3.44791667 96.9270833,4.91145833 98.59375,6.859375 C100.260417,8.80729167 101.520833,11.25 102.375,14.1875 C103.083333,16.7708333 103.4375,19.4375 103.4375,22.1875 C103.4375,26.3541667 102.635417,30.34375 101.03125,34.15625 C99.4270833,37.6770833 97.2864583,40.3125 94.609375,42.0625 C91.9322917,43.8125 89.125,44.6875 86.1875,44.6875 Z" id="Shape"></path>
            <path d="M127.6875,45.0625 C124.875,45.0416667 122.166667,44.46875 119.5625,43.34375 C116.958333,42.21875 114.645833,40.4895833 112.625,38.15625 C111.708333,37.0104167 111.25,35.7708333 111.25,34.4375 C111.25,33.6458333 111.416667,32.8697917 111.75,32.109375 C112.083333,31.3489583 112.583333,30.6770833 113.25,30.09375 C114.395833,29.1979167 115.625,28.75 116.9375,28.75 C117.75,28.75 118.536458,28.9166667 119.296875,29.25 C120.057292,29.5833333 120.729167,30.0729167 121.3125,30.71875 C122.25,31.78125 123.296875,32.5364583 124.453125,32.984375 C125.609375,33.4322917 126.697917,33.65625 127.71875,33.65625 C128.65625,33.65625 129.442708,33.5052083 130.078125,33.203125 C130.713542,32.9010417 131.03125,32.53125 131.03125,32.09375 C131.03125,31.7395833 130.822917,31.3020833 130.40625,30.78125 C129.989583,30.2604167 129.239583,29.7916667 128.15625,29.375 C126.072917,28.6666667 124.041667,27.8385417 122.0625,26.890625 C120.083333,25.9427083 118.296875,24.8177083 116.703125,23.515625 C115.109375,22.2135417 113.828125,20.65625 112.859375,18.84375 C111.890625,17.03125 111.40625,14.8958333 111.40625,12.4375 C111.40625,10.3125 111.822917,8.47395833 112.65625,6.921875 C113.489583,5.36979167 114.598958,4.08333333 115.984375,3.0625 C117.369792,2.04166667 118.921875,1.28125 120.640625,0.78125 C122.359375,0.28125 124.125,0.0208333333 125.9375,0 C128.875,0 131.59375,0.697916667 134.09375,2.09375 C136.59375,3.48958333 138.635417,5.44791667 140.21875,7.96875 C140.802083,8.94791667 141.09375,9.95833333 141.09375,11 C141.09375,12.5625 140.520833,13.9010417 139.375,15.015625 C138.229167,16.1302083 136.885417,16.6875 135.34375,16.6875 C134.40625,16.6875 133.510417,16.4583333 132.65625,16 C131.802083,15.5416667 131.104167,14.875 130.5625,14 C129.895833,12.9166667 129.104167,12.109375 128.1875,11.578125 C127.270833,11.046875 126.395833,10.78125 125.5625,10.78125 C124.75,10.8229167 124.098958,11.0416667 123.609375,11.4375 C123.119792,11.8333333 122.864583,12.2604167 122.84375,12.71875 C122.84375,13.59375 123.239583,14.375 124.03125,15.0625 C125.364583,16.2291667 127.145833,17.1770833 129.375,17.90625 C132.958333,19.1145833 135.916667,20.7604167 138.25,22.84375 C141.041667,25.3229167 142.4375,28.25 142.4375,31.625 C142.270833,35.8958333 140.765625,39.203125 137.921875,41.546875 C135.078125,43.890625 131.666667,45.0625 127.6875,45.0625 Z" id="Path"></path>
            <path d="M169,44.90625 C167.270833,44.8645833 165.859375,44.34375 164.765625,43.34375 C163.671875,42.34375 163.125,41.0625 163.125,39.5 C163.1875,37.4166667 163.322917,35.3854167 163.53125,33.40625 C163.71875,31.3229167 163.864583,29.0416667 163.96875,26.5625 C160.59375,26.6041667 157.90625,26.7291667 155.90625,26.9375 C156.03125,29.3125 156.21875,31.6145833 156.46875,33.84375 C156.635417,35.4270833 156.770833,36.9583333 156.875,38.4375 C156.895833,38.6458333 156.911458,38.8125 156.921875,38.9375 C156.932292,39.0625 156.9375,39.2604167 156.9375,39.53125 C156.9375,40.8854167 156.463542,42.078125 155.515625,43.109375 C154.567708,44.140625 153.385417,44.71875 151.96875,44.84375 C151.760417,44.8645833 151.598958,44.8802083 151.484375,44.890625 C151.369792,44.9010417 151.1875,44.90625 150.9375,44.90625 C149.604167,44.90625 148.427083,44.4270833 147.40625,43.46875 C146.385417,42.5104167 145.770833,41.3229167 145.5625,39.90625 C144.729167,33.09375 144.3125,26.0625 144.3125,18.8125 C144.3125,14.2708333 144.479167,9.95833333 144.8125,5.875 C144.979167,4.375 145.588542,3.125 146.640625,2.125 C147.692708,1.125 148.9375,0.625 150.375,0.625 C152.083333,0.666666667 153.489583,1.19270833 154.59375,2.203125 C155.697917,3.21354167 156.25,4.51041667 156.25,6.09375 C156.25,6.44791667 156.229167,6.80208333 156.1875,7.15625 C155.979167,10.1979167 155.84375,13.2916667 155.78125,16.4375 C157.760417,16.2916667 160.479167,16.1770833 163.9375,16.09375 C163.854167,14.2395833 163.739583,12.4166667 163.59375,10.625 C163.489583,9.35416667 163.40625,8.11458333 163.34375,6.90625 L163.3125,6.0625 C163.3125,4.52083333 163.859375,3.23958333 164.953125,2.21875 C166.046875,1.19791667 167.447917,0.666666667 169.15625,0.625 C170.572917,0.625 171.8125,1.11458333 172.875,2.09375 C173.9375,3.07291667 174.552083,4.30208333 174.71875,5.78125 C175.197917,10.8229167 175.4375,16.125 175.4375,21.6875 C175.4375,28 175.125,34.0520833 174.5,39.84375 C174.3125,41.3020833 173.697917,42.5104167 172.65625,43.46875 C171.614583,44.4270833 170.395833,44.90625 169,44.90625 Z" id="Path"></path>
            <path d="M195.65625,44.78125 C193.510417,44.78125 191.40625,44.2239583 189.34375,43.109375 C187.28125,41.9947917 185.432292,40.3125 183.796875,38.0625 C182.161458,35.8125 180.854167,32.9895833 179.875,29.59375 C178.895833,26.1979167 178.40625,22.2083333 178.40625,17.625 C178.40625,13.9791667 178.770833,9.94791667 179.5,5.53125 C179.770833,4.11458333 180.4375,2.96354167 181.5,2.078125 C182.5625,1.19270833 183.770833,0.75 185.125,0.75 C186.666667,0.75 188.010417,1.30208333 189.15625,2.40625 C190.302083,3.51041667 190.875,4.86458333 190.875,6.46875 C190.875,6.78125 190.84375,7.10416667 190.78125,7.4375 C190.072917,11.7083333 189.71875,15.4375 189.71875,18.625 C189.71875,21.8958333 190.010417,24.5989583 190.59375,26.734375 C191.177083,28.8697917 191.927083,30.4635417 192.84375,31.515625 C193.760417,32.5677083 194.71875,33.09375 195.71875,33.09375 C196.697917,33.09375 197.645833,32.578125 198.5625,31.546875 C199.479167,30.515625 200.229167,28.9791667 200.8125,26.9375 C201.395833,24.8958333 201.6875,22.375 201.6875,19.375 C201.6875,16.25 201.291667,12.6145833 200.5,8.46875 C200.416667,8.09375 200.375,7.71875 200.375,7.34375 C200.375,5.71875 200.947917,4.35416667 202.09375,3.25 C203.239583,2.14583333 204.572917,1.59375 206.09375,1.59375 C207.427083,1.59375 208.614583,2.015625 209.65625,2.859375 C210.697917,3.703125 211.375,4.8125 211.6875,6.1875 C212.583333,10.75 213.03125,14.9166667 213.03125,18.6875 C213.03125,22.9791667 212.541667,26.75 211.5625,30 C210.583333,33.25 209.265625,35.96875 207.609375,38.15625 C205.953125,40.34375 204.088542,41.9947917 202.015625,43.109375 C199.942708,44.2239583 197.822917,44.78125 195.65625,44.78125 Z" id="Path"></path>
            <path d="M232.375,33.125 C233.1875,33.125 233.979167,32.828125 234.75,32.234375 C235.520833,31.640625 236.177083,30.75 236.71875,29.5625 C237.677083,27.2083333 238.15625,24.7395833 238.15625,22.15625 C238.15625,20.46875 237.947917,18.84375 237.53125,17.28125 C237.052083,15.65625 236.338542,14.4375 235.390625,13.625 C234.442708,12.8125 233.4375,12.40625 232.375,12.40625 C231.3125,12.40625 230.302083,12.8125 229.34375,13.625 C228.385417,14.4375 227.666667,15.65625 227.1875,17.28125 C226.770833,18.84375 226.5625,20.46875 226.5625,22.15625 C226.5625,24.7395833 227.041667,27.2083333 228,29.5625 C228.541667,30.75 229.197917,31.640625 229.96875,32.234375 C230.739583,32.828125 231.541667,33.125 232.375,33.125 Z M232.34375,44.6875 C229.40625,44.6875 226.598958,43.8125 223.921875,42.0625 C221.244792,40.3125 219.104167,37.6770833 217.5,34.15625 C215.916667,30.34375 215.125,26.3541667 215.125,22.1875 C215.125,19.4375 215.479167,16.7708333 216.1875,14.1875 C217.041667,11.25 218.302083,8.80729167 219.96875,6.859375 C221.635417,4.91145833 223.546875,3.44791667 225.703125,2.46875 C227.859375,1.48958333 230.083333,1 232.375,1 C234.645833,1 236.859375,1.48958333 239.015625,2.46875 C241.171875,3.44791667 243.083333,4.91145833 244.75,6.859375 C246.416667,8.80729167 247.677083,11.25 248.53125,14.1875 C249.239583,16.7708333 249.59375,19.4375 249.59375,22.1875 C249.59375,26.3541667 248.791667,30.34375 247.1875,34.15625 C245.583333,37.6770833 243.442708,40.3125 240.765625,42.0625 C238.088542,43.8125 235.28125,44.6875 232.34375,44.6875 Z" id="Shape"></path>
        </g>
    </g>
</svg>