<?xml version="1.0" encoding="UTF-8"?>
<svg width="80px" height="80px" viewBox="0 0 80 80" version="1.1" xmlns="http://www.w3.org/2000/svg" xmlns:xlink="http://www.w3.org/1999/xlink">
    <title>duoshuo-dark</title>
    <g id="duoshuo-dark" stroke="none" stroke-width="1" fill="none" fill-rule="evenodd">
        <path d="M49.2196,68.2044872 C52.5054288,69.205826 55.9790394,69.4324649 59.3674,68.8665899 C59.5014988,68.8449719 59.6371681,68.83455 59.773,68.8354321 C60.982,68.8354321 62.5693,69.536482 64.882,71.0164763 L64.882,68.5822752 C64.8829777,67.7248421 65.346522,66.9344605 66.0949,66.514178 C67.1011,65.9455486 68.0371,65.2912354 68.8912,64.5707119 C72.2608,61.7197756 74.164,57.9185272 74.164,53.891385 C74.164,52.5399165 73.9495,51.2273953 73.5439,49.9732949 C74.5618,48.0765655 75.3847,46.082468 75.9892,44.0143707 C77.9436916,46.9393383 78.990977,50.3749864 79,53.891385 C79,59.363469 76.4494,64.4655544 72.0385,68.1966978 C71.3022615,68.8189855 70.5272024,69.3939644 69.718,69.9181648 L69.718,75.6083532 C69.718,77.5673982 67.456,78.6929727 65.8609,77.528451 C64.3525442,76.4024195 62.7907334,75.3496241 61.1809,74.3737264 C60.7198962,74.0981842 60.2403506,73.8548318 59.7457,73.6454134 C58.4197,73.8440442 57.0625,73.945307 55.6936,73.945307 C50.1868,73.945307 45.1012,72.2978397 41.0959,69.5286926 C43.8362596,69.338236 46.5570259,68.8949501 49.2196,68.2044872 Z M11.9746,58.1483158 C5.017,52.2556019 1,44.2285804 1,35.6251402 C1,18.0482612 17.6062,4 37.8823,4 C58.1623,4 74.7685,18.0482612 74.7685,35.6251402 C74.7685,53.2059139 58.1584,67.2541751 37.8823,67.2541751 C35.6047,67.2541751 33.3505,67.0789126 31.1431,66.7283877 C30.1876,66.9542815 26.3695,69.2210096 20.8666,73.2325729 C18.8737,74.6891988 16.0462,73.2832043 16.0462,70.8334244 L16.0462,61.1277779 C14.6211466,60.2305703 13.2606314,59.2349907 11.9746,58.1483158 Z M31.7827,60.7811477 C33.7717,61.1160937 35.8153,61.2874615 37.8823,61.2874615 C55.0111,61.2874615 68.7196,49.6889803 68.7196,35.6251402 C68.7196,21.5651949 55.0111,9.96671364 37.8823,9.96671364 C20.7613,9.96671364 7.045,21.5651949 7.045,35.6251402 C7.045,42.4253243 10.2469,48.8282468 15.9097,53.6187544 C17.3332,54.8183287 18.8971,55.9088508 20.5741,56.8591629 C21.514,57.3888451 22.0951,58.3781044 22.0951,59.4452581 L22.0951,65.0419732 C26.4475,62.1248266 29.3101,60.7422004 31.2757,60.7422004 C31.4434,60.7422004 31.615,60.7538846 31.7827,60.7811477 Z M22.1614,41.5957486 C19.4899,41.5957486 17.3254,39.4536516 17.3254,36.8208198 C17.3254,34.1840932 19.4899,32.045891 22.1614,32.045891 C24.8329,32.045891 26.9974,34.1840932 26.9974,36.8208198 C26.9974,39.4575463 24.8329,41.5957486 22.1614,41.5957486 Z M33.0463,36.8208198 C33.0463,34.1840932 35.2108,32.045891 37.8823,32.045891 C40.5538,32.045891 42.7183,34.1840932 42.7183,36.8208198 C42.7183,39.4575463 40.5538,41.5957486 37.8823,41.5957486 C35.2108,41.5957486 33.0463,39.4536516 33.0463,36.8208198 Z M53.6032,41.5957486 C50.9317,41.5957486 48.7672,39.4536516 48.7672,36.8208198 C48.7672,34.1840932 50.9317,32.045891 53.6032,32.045891 C56.2747,32.045891 58.4392,34.1840932 58.4392,36.8208198 C58.4392,39.4575463 56.2747,41.5957486 53.6032,41.5957486 Z" id="Shape" fill="#76B3E2" fill-rule="nonzero" />
    </g>
</svg>
