<svg width="20px" height="20px" viewBox="0 0 20 20" version="1.1" xmlns="http://www.w3.org/2000/svg" xmlns:xlink="http://www.w3.org/1999/xlink">
    <g id="Page-1" stroke="none" stroke-width="1" fill="none" fill-rule="evenodd">
        <path d="M10.28,17.325 C10.9836563,17.2760988 11.6812887,17.1622817 12.364,16.985 C13.2065202,17.2421015 14.0971896,17.3002928 14.966,17.155 C15.0003843,17.1494494 15.0351713,17.1467735 15.07,17.147 C15.38,17.147 15.787,17.327 16.38,17.707 L16.38,17.082 C16.3802507,16.8618474 16.4991082,16.6589108 16.691,16.551 C16.949,16.405 17.189,16.237 17.408,16.052 C18.272,15.32 18.76,14.344 18.76,13.31 C18.76,12.963 18.705,12.626 18.601,12.304 C18.862,11.817 19.073,11.305 19.228,10.774 C19.7291517,11.5250081 19.9976864,12.4071374 20,13.31 C20,14.715 19.346,16.025 18.215,16.983 C18.0262209,17.1427772 17.8274878,17.2904075 17.62,17.425 L17.62,18.886 C17.62,19.389 17.04,19.678 16.631,19.379 C16.2442421,19.0898827 15.8437778,18.8195693 15.431,18.569 C15.3127939,18.4982524 15.1898335,18.4357698 15.063,18.382 C14.723,18.433 14.375,18.459 14.024,18.459 C12.612,18.459 11.308,18.036 10.281,17.325 L10.28,17.325 Z M2.814,14.403 C1.03,12.89 -1.77635684e-15,10.829 -1.77635684e-15,8.62 C-1.77635684e-15,4.107 4.258,0.5 9.457,0.5 C14.657,0.5 18.915,4.107 18.915,8.62 C18.915,13.134 14.656,16.741 9.457,16.741 C8.873,16.741 8.295,16.696 7.729,16.606 C7.484,16.664 6.505,17.246 5.094,18.276 C4.583,18.65 3.858,18.289 3.858,17.66 L3.858,15.168 C3.4926017,14.937635 3.14375164,14.6820122 2.814,14.403 Z M7.763,15.069 C7.806,15.069 7.85,15.072 7.893,15.079 C8.403,15.165 8.927,15.209 9.457,15.209 C13.849,15.209 17.364,12.231 17.364,8.62 C17.364,5.01 13.849,2.032 9.457,2.032 C5.067,2.032 1.55,5.01 1.55,8.62 C1.55,10.366 2.371,12.01 3.823,13.24 C4.188,13.548 4.589,13.828 5.019,14.072 C5.26,14.208 5.409,14.462 5.409,14.736 L5.409,16.173 C6.525,15.424 7.259,15.069 7.763,15.069 L7.763,15.069 Z M5.426,10.153 C4.741,10.153 4.186,9.603 4.186,8.927 C4.186,8.25 4.741,7.701 5.426,7.701 C6.111,7.701 6.666,8.25 6.666,8.927 C6.666,9.604 6.111,10.153 5.426,10.153 Z M9.457,10.153 C8.772,10.153 8.217,9.603 8.217,8.927 C8.217,8.25 8.772,7.701 9.457,7.701 C10.142,7.701 10.697,8.25 10.697,8.927 C10.697,9.604 10.142,10.153 9.457,10.153 L9.457,10.153 Z M13.488,10.153 C12.803,10.153 12.248,9.603 12.248,8.927 C12.248,8.25 12.803,7.701 13.488,7.701 C14.173,7.701 14.728,8.25 14.728,8.927 C14.728,9.604 14.173,10.153 13.488,10.153 Z" id="Shape" fill="#1C98F7" fill-rule="nonzero"></path>
    </g>
</svg>
